# xmcd
# Track frame offsets:
# 150
# 14237
# 25775
# 46417
# 64030
# 79035
# 92422
# 105110
# 121370
# 141842
# 154647
# 173875
#
# Disc length: 2461 seconds
# Revision: 0
# Processed by: cddbd v1.4PL0 Copyright (c) Steve Scherf et al.
# Submitted via: VisiTrax 2.9.5.180 - For more info visit www.synapsa.com
#
DISCID=8e099b0c
DTITLE=Inger Nordström and Rhinestone Band - Inger Nordström and Rhinestone Band
DYEAR=1993
DGENRE=Country
TTITLE0=Sylvie Marie
TTITLE1=When a love goes wrong
TTITLE2=The dress
TTITLE3=A lot to learn about love
TTITLE4=Bridges
TTITLE5=I'll let you make it up to me
TTITLE6=That's all it took
TTITLE7=Didn't we make better strangers
TTITLE8=Every circus needs a clown
TTITLE9=My hands are full (dealing with these empty arms)
TTITLE10=All I'm looking for
TTITLE11=Don't be mean to me
EXTD=
EXTT0=
EXTT1=
EXTT2=
EXTT3=
EXTT4=
EXTT5=
EXTT6=
EXTT7=
EXTT8=
EXTT9=
EXTT10=
EXTT11=
PLAYORDER=
